<svg width="128" height="128" viewBox="0 0 128 128" fill="none" xmlns="http://www.w3.org/2000/svg">
<path d="M28 12C28 9.79086 29.7909 8 32 8H96C98.2091 8 100 9.79086 100 12V24H28V12Z" fill="#3B82F6"/>
<path d="M28 104H100V116C100 118.209 98.2091 120 96 120H32C29.7909 120 28 118.209 28 116V104Z" fill="#3B82F6"/>
<path d="M28 56H96C98.2091 56 100 57.7909 100 60V72H32C29.7909 72 28 70.2091 28 68V56Z" fill="#3B82F6"/>
<rect x="28" y="24" width="16" height="32" fill="#3B82F6"/>
<rect x="84" y="72" width="16" height="32" fill="#3B82F6"/>
<path d="M84 24H100V36C100 38.2091 98.2091 40 96 40H88C85.7909 40 84 38.2091 84 36V24Z" fill="#3B82F6"/>
<rect x="64" y="37" width="16" height="16" rx="8" fill="#3B82F6"/>
<path d="M28 92C28 89.7909 29.7909 88 32 88H40C42.2091 88 44 89.7909 44 92V104H28V92Z" fill="#3B82F6"/>
<path d="M48 104C48 104 44 104 44 100V104H48Z" fill="#3B82F6"/>
<path d="M84 100C84 100 84 104 80 104H84V100Z" fill="#3B82F6"/>
<path d="M80 72C80 72 84 72 84 76V72H80Z" fill="#3B82F6"/>
<path d="M48 56C48 56 44 56 44 52V56H48Z" fill="#3B82F6"/>
<path d="M44 28C44 28 44 24 48 24H44V28Z" fill="#3B82F6"/>
<path d="M80 24C80 24 84 24 84 28V24H80Z" fill="#3B82F6"/>
</svg>
