<svg width="48" height="48" viewBox="0 0 48 48" fill="none" xmlns="http://www.w3.org/2000/svg">
<mask id="mask0_2_20" style="mask-type:alpha" maskUnits="userSpaceOnUse" x="0" y="0" width="48" height="48">
<rect width="48" height="48" fill="#D9D9D9"/>
</mask>
<g mask="url(#mask0_2_20)">
<path d="M24.9639 43.6835C24.3357 43.8742 23.6643 43.8742 23.0361 43.6835C18.8029 42.3982 15.2908 39.7787 12.5 35.825C9.5 31.575 8 26.9167 8 21.85V12.722C8 11.0546 9.03429 9.56214 10.5955 8.97668L22.5955 4.47668C23.501 4.1371 24.499 4.1371 25.4045 4.47668L37.4045 8.97668C38.9657 9.56214 40 11.0546 40 12.722V21.85C40 26.9167 38.5 31.575 35.5 35.825C32.7092 39.7787 29.1971 42.3982 24.9639 43.6835Z" fill="#3B82F6"/>
</g>
<path d="M24.196 37.432C22.924 37.432 21.736 37.276 20.632 36.964C19.528 36.652 18.544 36.22 17.68 35.668C16.816 35.092 16.096 34.456 15.52 33.76C14.968 33.064 14.608 32.332 14.44 31.564L19.264 30.124C19.576 30.94 20.128 31.648 20.92 32.248C21.712 32.824 22.708 33.124 23.908 33.148C25.18 33.172 26.212 32.896 27.004 32.32C27.82 31.744 28.228 31 28.228 30.088C28.228 29.296 27.904 28.636 27.256 28.108C26.632 27.556 25.768 27.136 24.664 26.848L21.388 25.984C20.164 25.672 19.084 25.204 18.148 24.58C17.212 23.932 16.48 23.14 15.952 22.204C15.424 21.268 15.16 20.176 15.16 18.928C15.16 16.552 15.94 14.704 17.5 13.384C19.084 12.04 21.316 11.368 24.196 11.368C25.804 11.368 27.208 11.608 28.408 12.088C29.632 12.544 30.652 13.204 31.468 14.068C32.284 14.932 32.908 15.952 33.34 17.128L28.552 18.604C28.264 17.788 27.736 17.092 26.968 16.516C26.2 15.94 25.228 15.652 24.052 15.652C22.852 15.652 21.904 15.928 21.208 16.48C20.536 17.032 20.2 17.812 20.2 18.82C20.2 19.612 20.464 20.236 20.992 20.692C21.544 21.148 22.288 21.496 23.224 21.736L26.536 22.564C28.696 23.092 30.376 24.04 31.576 25.408C32.776 26.776 33.376 28.3 33.376 29.98C33.376 31.468 33.016 32.776 32.296 33.904C31.576 35.008 30.532 35.872 29.164 36.496C27.796 37.12 26.14 37.432 24.196 37.432Z" fill="black"/>
</svg>
